HIERARCHY
ROOT root
{
	OFFSET	0	13.1	24.9
	CHANNELS 6  Xposition Yposition Zposition Xrotation Yrotation Zrotation
	JOINT spine_1
	{
		OFFSET	0	9.99999	0
		CHANNELS 3  Xrotation Yrotation Zrotation
		JOINT spine_2
		{
			OFFSET	0	112	-10
			CHANNELS 3  Xrotation Yrotation Zrotation
			JOINT spine_3
			{
				OFFSET	0	206.5	19.3
				CHANNELS 3  Xrotation Yrotation Zrotation
				JOINT spine_4
				{
					OFFSET	0	110.4	14.6
					CHANNELS 3  Xrotation Yrotation Zrotation
					JOINT neck_1
					{
						OFFSET	0	71.8	-50.3
						CHANNELS 3  Xrotation Yrotation Zrotation
						JOINT neck_2
						{
							OFFSET	0	86.2	-25.8
							CHANNELS 3  Xrotation Yrotation Zrotation
							JOINT head_ee
							{
								OFFSET	0	179.8	-8.7
								CHANNELS 3  Xrotation Yrotation Zrotation
								End Site
								{
									OFFSET	1	0	0
								}
							}
						}
					}
					JOINT left_clavicle
					{
						OFFSET	-43.2	22.4	-70.8
						CHANNELS 3  Xrotation Yrotation Zrotation
						JOINT left_shoulder
						{
							OFFSET	-93.9	-5.79999	48.7
							CHANNELS 3  Xrotation Yrotation Zrotation
							JOINT left_elbow
							{
								OFFSET	-291.4	-30.8	15.2
								CHANNELS 3  Xrotation Yrotation Zrotation
								JOINT left_lowarm_twist
								{
									OFFSET	-110.7	-3.89999	13.6
									CHANNELS 3  Xrotation Yrotation Zrotation
									JOINT left_hand
									{
										OFFSET	-110.7	-3.89999	13.6
										CHANNELS 3  Xrotation Yrotation Zrotation
										JOINT left_ee
										{
											OFFSET	-80.8	-5.10001	12.1
											CHANNELS 3  Xrotation Yrotation Zrotation
											End Site
											{
												OFFSET	1	0	0
											}
										}
									}
								}
							}
						}
					}
					JOINT right_clavicle
					{
						OFFSET	43.2	22.4	-70.8
						CHANNELS 3  Xrotation Yrotation Zrotation
						JOINT right_shoulder
						{
							OFFSET	93.9	-5.79999	48.7
							CHANNELS 3  Xrotation Yrotation Zrotation
							JOINT right_elbow
							{
								OFFSET	291.4	-30.8	15.2
								CHANNELS 3  Xrotation Yrotation Zrotation
								JOINT right_lowarm_twist
								{
									OFFSET	110.7	-3.89999	13.6
									CHANNELS 3  Xrotation Yrotation Zrotation
									JOINT right_hand
									{
										OFFSET	110.7	-3.89999	13.6
										CHANNELS 3  Xrotation Yrotation Zrotation
										JOINT right_ee
										{
											OFFSET	80.8	-5.10001	12.1
											CHANNELS 3  Xrotation Yrotation Zrotation
											End Site
											{
												OFFSET	1	0	0
											}
										}
									}
								}
							}
						}
					}
				}
			}
		}
	}
	JOINT left_hip
	{
		OFFSET	-82.8	-127.5	0.300001
		CHANNELS 3  Xrotation Yrotation Zrotation
		JOINT left_knee
		{
			OFFSET	-28.2	-396.7	2.2
			CHANNELS 3  Xrotation Yrotation Zrotation
			JOINT left_ankle
			{
				OFFSET	-11.7	-411.3	35.4
				CHANNELS 3  Xrotation Yrotation Zrotation
				JOINT left_toes
				{
					OFFSET	0	-60	-88.6
					CHANNELS 3  Xrotation Yrotation Zrotation
					JOINT left_foot_ee
					{
						OFFSET	-22.5	-16.5	-42.2
						CHANNELS 3  Xrotation Yrotation Zrotation
						End Site
						{
							OFFSET	1	0	0
						}
					}
				}
			}
		}
	}
	JOINT right_hip
	{
		OFFSET	82.8	-127.5	0.300001
		CHANNELS 3  Xrotation Yrotation Zrotation
		JOINT right_knee
		{
			OFFSET	28.2	-396.7	2.2
			CHANNELS 3  Xrotation Yrotation Zrotation
			JOINT right_ankle
			{
				OFFSET	11.7	-411.3	35.4
				CHANNELS 3  Xrotation Yrotation Zrotation
				JOINT right_toes
				{
					OFFSET	0	-60	-88.6
					CHANNELS 3  Xrotation Yrotation Zrotation
					JOINT right_foot_ee
					{
						OFFSET	22.5	-16.5	-42.2
						CHANNELS 3  Xrotation Yrotation Zrotation
						End Site
						{
							OFFSET	1	0	0
						}
					}
				}
			}
		}
	}
}
MOTION
Frames: 16
Frame Time: 0.02
863.567676009 631.45 -1850.62743457 -4.81856673093 7.75346652171 12.1577620678 3.14839 -0.555681 -2.99682 3.15332 -0.36395 -3.02607 3.17088 0.111814 -3.0458 3.15813 -0.370393 -3.02529 -5.78165 16.1682 1.11334 -5.67033 29.0958 4.13004 -0.0 0.0 -0.0 -1.65347 21.6722 0.169225 1.10353 -19.319 65.4005 2.83594 -54.5455 1.46225 -11.0758 -0.519206 1.31527 -2.22744 10.3103 -10.0268 -0.0 0.0 -0.0 6.2746 8.56756 -11.9226 -25.236 26.1177 -65.7112 0.271766 7.66752 -0.0182115 -11.8586 0.5654 -1.40412 3.00978 7.94659 -17.1984 0.0 0.0 0.0 7.86109 -12.6087 -16.3944 -1.20162 0.0476088 0.178256 17.0096 29.3314 -2.53684 17.5007 -0.0 -0.0 -0.0 0.0 -0.0 45.4246 41.615 -38.2306 -47.1385 0.982189 -6.9671 34.1114 -22.0636 4.49257 19.3351 -0.0 -0.0 0.0 0.0 0.0 
857.998672173 631.452 -1856.76246256 -4.01782234173 7.84678168755 12.6528915428 2.83727 -0.547999 -3.17863 2.84283 -0.34473 -3.20702 2.86073 0.176494 -3.22065 2.84641 -0.334095 -3.20815 -5.86178 14.8571 1.61158 -5.77723 26.3078 4.40202 -0.0 0.0 -0.0 -1.35622 20.842 0.467576 3.00412 -18.8019 64.5877 2.97589 -55.8378 1.57717 -11.0533 -0.517897 1.31271 -2.37942 6.83802 -12.7555 -0.0 0.0 -0.0 6.32025 9.31265 -11.9852 -26.2666 25.9055 -65.455 0.272204 7.67972 -0.01827 -12.3569 0.595446 -1.46037 2.95367 5.31314 -17.9536 0.0 0.0 0.0 6.38965 -10.9974 -16.2563 -0.7773 0.0312249 0.115198 21.4433 28.9419 -3.13432 16.3198 -0.0 -0.0 -0.0 0.0 -0.0 50.9622 35.912 -40.1733 -50.3962 1.25685 -7.38669 34.052 -22.6018 4.49882 18.029 -0.0 -0.0 0.0 0.0 0.0 
857.878242659 631.452 -1856.63568782 -4.01820564681 7.88627663324 12.6556921314 2.83727 -0.547999 -3.17863 2.84283 -0.34473 -3.20702 2.86073 0.176494 -3.22065 2.84641 -0.334095 -3.20815 -5.86178 14.8571 1.61158 -5.77723 26.3078 4.40202 -0.0 0.0 -0.0 -1.35622 20.842 0.467576 3.00412 -18.8019 64.5877 2.97589 -55.8378 1.57717 -11.0533 -0.517897 1.31271 -2.37942 6.83802 -12.7555 -0.0 0.0 -0.0 6.32025 9.31265 -11.9852 -26.2666 25.9055 -65.455 0.272204 7.67972 -0.01827 -12.3569 0.595446 -1.46037 2.95367 5.31314 -17.9536 0.0 0.0 0.0 6.38965 -10.9974 -16.2563 -0.7773 0.0312249 0.115198 21.4433 28.9419 -3.13432 16.3198 -0.0 -0.0 -0.0 0.0 -0.0 50.9622 35.912 -40.1733 -50.3962 1.25685 -7.38669 34.052 -22.6018 4.49882 18.029 -0.0 -0.0 0.0 0.0 0.0 
847.73670809 622.758 -1862.25013877 -3.67231522256 7.45477932973 13.0691529955 2.95553 -0.575298 -3.58997 2.96263 -0.345846 -3.61925 2.98242 0.234183 -3.62818 2.96422 -0.341374 -3.61968 -5.86036 14.8821 1.74798 -5.77571 26.2541 4.54354 -0.0 0.0 -0.0 -1.55052 20.9198 0.198828 3.91368 -19.3712 65.31 3.27313 -58.3227 1.82674 -10.7124 -0.498172 1.2738 -1.97813 2.20955 -12.2924 -0.0 0.0 -0.0 5.55024 9.68787 -10.3541 -26.7713 25.9479 -65.2073 0.284242 8.01503 -0.0199136 -11.3922 0.537729 -1.35125 3.21103 1.7969 -21.276 0.0 0.0 0.0 6.0214 -7.4485 -15.5949 0.0855796 -0.00353332 -0.0126576 26.0238 28.1645 -3.70779 15.8726 -0.0 -0.0 -0.0 0.0 -0.0 54.3871 34.6973 -41.5808 -50.806 1.29309 -7.43838 35.758 -23.3342 4.69585 17.3147 -0.0 -0.0 0.0 0.0 0.0 
834.216464128 624.869 -1860.32582053 -4.77720316783 9.31057670113 14.6476803389 2.91208 -0.523551 -3.53595 2.91899 -0.297634 -3.56206 2.93556 0.275683 -3.56382 2.91796 -0.290249 -3.56267 -6.69509 10.3354 2.89196 -6.67206 17.0902 4.947 -0.0 0.0 -0.0 -1.51646 21.986 0.41243 10.7405 -18.3736 67.6711 3.42928 -59.502 1.96047 -11.4646 -0.541999 1.35948 -1.95819 2.37719 -12.0778 -0.0 0.0 -0.0 5.56882 10.2648 -10.361 -26.0494 26.6323 -65.6101 0.228415 6.45573 -0.0128818 -9.03745 0.40466 -1.08103 3.65551 -1.9172 -26.0231 0.0 0.0 0.0 8.61364 1.93829 -15.2833 6.12006 -0.299949 -0.890523 25.7942 28.9207 -3.69854 6.62729 -0.0 -0.0 -0.0 0.0 -0.0 55.3451 34.5344 -41.8441 -39.3626 0.426712 -5.90885 28.404 -29.1543 4.02938 13.6012 -0.0 -0.0 0.0 0.0 0.0 
830.076207405 626.309 -1865.86437024 -4.09263345857 9.99692343539 14.2727937852 2.81418 -0.403224 -3.42109 2.82067 -0.184845 -3.43978 2.83008 0.373956 -3.42441 2.81376 -0.171228 -3.44049 -8.33362 8.9862 2.81859 -8.34819 14.8318 4.79207 -0.0 0.0 -0.0 -1.11145 21.1063 0.85892 10.7559 -17.867 66.5271 3.4644 -59.7563 1.99077 -11.6935 -0.555556 1.38543 -1.97995 4.83725 -11.0558 -0.0 0.0 -0.0 5.71217 10.3907 -10.6547 -26.1841 26.881 -65.9347 0.219489 6.20545 -0.0118975 -9.56936 0.433743 -1.14254 3.47485 -2.60612 -24.9536 0.0 0.0 0.0 9.25258 5.95203 -14.9929 5.78057 -0.280825 -0.841985 25.7766 28.6726 -3.68982 7.10336 -0.0 -0.0 -0.0 0.0 -0.0 55.7933 35.0204 -42.2654 -33.1969 0.0915985 -5.02319 17.5181 -28.9862 2.60146 13.5946 -0.0 -0.0 0.0 0.0 0.0 
748.470367814 629.572 -1885.55097048 -4.67065220781 24.9831807659 13.722549118 2.91279 -0.413962 -3.31579 2.91888 -0.202251 -3.33538 2.92892 0.334093 -3.32477 2.91355 -0.194884 -3.33582 -4.13655 4.13333 3.20168 -4.10647 5.11573 3.95294 -0.0 0.0 -0.0 -0.362925 19.425 1.72932 4.36045 -19.4618 70.2358 1.93081 -43.7207 0.774692 -9.13194 -0.409785 1.09197 1.53794 -14.4476 4.19185 -0.0 0.0 -0.0 6.76861 14.4466 -12.6675 -22.9197 31.6262 -66.8349 0.610403 16.8242 -0.090269 -6.97388 0.297282 -0.839948 4.76432 -1.15042 -34.3171 0.0 0.0 0.0 13.14 -0.888787 -13.8446 -22.9899 0.248162 3.49564 39.0516 20.2484 -4.9456 9.15672 -0.0 -0.0 -0.0 0.0 -0.0 62.6528 55.693 -51.5382 -17.9435 -0.314447 -2.7244 12.087 -30.6474 1.85091 2.92993 -0.0 -0.0 0.0 0.0 0.0 
748.199027306 629.572 -1885.15911855 -4.6735648302 25.0595352691 13.7294354636 2.91279 -0.413962 -3.31579 2.91888 -0.202251 -3.33538 2.92892 0.334093 -3.32477 2.91355 -0.194884 -3.33582 -4.13655 4.13333 3.20168 -4.10647 5.11573 3.95294 -0.0 0.0 -0.0 -0.362925 19.425 1.72932 4.36045 -19.4618 70.2358 1.93081 -43.7207 0.774692 -9.13194 -0.409785 1.09197 1.53794 -14.4476 4.19185 -0.0 0.0 -0.0 6.76861 14.4466 -12.6675 -22.9197 31.6262 -66.8349 0.610403 16.8242 -0.090269 -6.97388 0.297282 -0.839948 4.76432 -1.15042 -34.3171 0.0 0.0 0.0 13.14 -0.888787 -13.8446 -22.9899 0.248162 3.49564 39.0516 20.2484 -4.9456 9.15672 -0.0 -0.0 -0.0 0.0 -0.0 62.6528 55.693 -51.5382 -17.9435 -0.314447 -2.7244 12.087 -30.6474 1.85091 2.92993 -0.0 -0.0 0.0 0.0 0.0 
738.445679012 627.353 -1880.94863849 -5.04413528575 25.5605684034 12.9741628307 3.07392 -0.543361 -3.2419 3.0797 -0.336082 -3.26986 3.09703 0.181629 -3.28205 3.08216 -0.338706 -3.26959 -4.30762 4.46608 2.48508 -4.28504 6.28698 3.27665 -0.0 0.0 -0.0 -0.240028 20.8566 2.08105 3.31522 -19.4305 71.2047 1.77606 -41.3378 0.67006 -8.46229 -0.373858 1.01422 1.44212 -14.7308 3.42186 -0.0 0.0 -0.0 7.38785 16.2981 -13.8909 -22.355 30.5046 -65.1471 0.686223 18.7747 -0.113449 -5.54883 0.228241 -0.67131 3.54787 -1.49066 -25.0584 0.0 0.0 0.0 13.8763 -1.95593 -12.7755 -25.1445 0.199218 3.82263 40.0141 18.4264 -4.99516 6.37977 -0.0 -0.0 -0.0 0.0 -0.0 60.5736 54.1462 -48.7047 -21.6652 -0.272136 -3.29378 12.3379 -30.6041 1.88721 1.3911 -0.0 -0.0 0.0 0.0 0.0 
739.844098756 627.353 -1883.06640373 -5.0274326951 25.1606738886 12.9351669504 3.07392 -0.543361 -3.2419 3.0797 -0.336082 -3.26986 3.09703 0.181629 -3.28205 3.08216 -0.338706 -3.26959 -4.30762 4.46608 2.48508 -4.28504 6.28698 3.27665 -0.0 0.0 -0.0 -0.240028 20.8566 2.08105 3.31522 -19.4305 71.2047 1.77606 -41.3378 0.67006 -8.46229 -0.373858 1.01422 1.44212 -14.7308 3.42186 -0.0 0.0 -0.0 7.38785 16.2981 -13.8909 -22.355 30.5046 -65.1471 0.686223 18.7747 -0.113449 -5.54883 0.228241 -0.67131 3.54787 -1.49066 -25.0584 0.0 0.0 0.0 13.8763 -1.95593 -12.7755 -25.1445 0.199218 3.82263 40.0141 18.4264 -4.99516 6.37977 -0.0 -0.0 -0.0 0.0 -0.0 60.5736 54.1462 -48.7047 -21.6652 -0.272136 -3.29378 12.3379 -30.6041 1.88721 1.3911 -0.0 -0.0 0.0 0.0 0.0 
726.365453265 628.563 -1879.41802051 -5.56228493397 28.5136813162 13.4125208736 3.33491 -0.65646 -3.11209 3.34018 -0.4572 -3.14751 3.36327 0.0278004 -3.18039 3.34947 -0.474579 -3.14494 -4.47268 3.96258 2.55645 -4.45188 5.32267 3.2728 -0.0 0.0 -0.0 -0.226621 19.9486 1.99339 2.17585 -19.9136 72.1197 1.57571 -37.9714 0.542149 -6.9085 -0.294023 0.832249 1.89587 -14.6211 6.52677 -0.0 0.0 -0.0 7.70695 13.351 -14.7487 -22.3468 29.5581 -64.0933 0.788518 21.336 -0.148538 -4.78093 0.192788 -0.579752 3.53931 1.19471 -23.9139 0.0 0.0 0.0 14.7301 -1.68712 -13.2752 -25.8265 0.181164 3.92575 36.5219 20.0028 -4.6945 5.79088 -0.0 -0.0 -0.0 0.0 -0.0 58.9812 54.5696 -47.5732 -21.7611 -0.270557 -3.30841 15.4792 -30.5643 2.34211 3.26683 -0.0 -0.0 0.0 0.0 0.0 
728.758557032 628.563 -1883.19428585 -5.52661314169 27.8275016418 13.3369621503 3.33491 -0.65646 -3.11209 3.34018 -0.4572 -3.14751 3.36327 0.0278004 -3.18039 3.34947 -0.474579 -3.14494 -4.47268 3.96258 2.55645 -4.45188 5.32267 3.2728 -0.0 0.0 -0.0 -0.226621 19.9486 1.99339 2.17585 -19.9136 72.1197 1.57571 -37.9714 0.542149 -6.9085 -0.294023 0.832249 1.89587 -14.6211 6.52677 -0.0 0.0 -0.0 7.70695 13.351 -14.7487 -22.3468 29.5581 -64.0933 0.788518 21.336 -0.148538 -4.78093 0.192788 -0.579752 3.53931 1.19471 -23.9139 0.0 0.0 0.0 14.7301 -1.68712 -13.2752 -25.8265 0.181164 3.92575 36.5219 20.0028 -4.6945 5.79088 -0.0 -0.0 -0.0 0.0 -0.0 58.9812 54.5696 -47.5732 -21.7611 -0.270557 -3.30841 15.4792 -30.5643 2.34211 3.26683 -0.0 -0.0 0.0 0.0 0.0 
732.238606454 628.563 -1888.51274238 -5.47802333366 26.8519070721 13.2311669955 3.33491 -0.65646 -3.11209 3.34018 -0.4572 -3.14751 3.36327 0.0278004 -3.18039 3.34947 -0.474579 -3.14494 -4.47268 3.96258 2.55645 -4.45188 5.32267 3.2728 -0.0 0.0 -0.0 -0.226621 19.9486 1.99339 2.17585 -19.9136 72.1197 1.57571 -37.9714 0.542149 -6.9085 -0.294023 0.832249 1.89587 -14.6211 6.52677 -0.0 0.0 -0.0 7.70695 13.351 -14.7487 -22.3468 29.5581 -64.0933 0.788518 21.336 -0.148538 -4.78093 0.192788 -0.579752 3.53931 1.19471 -23.9139 0.0 0.0 0.0 14.7301 -1.68712 -13.2752 -25.8265 0.181164 3.92575 36.5219 20.0028 -4.6945 5.79088 -0.0 -0.0 -0.0 0.0 -0.0 58.9812 54.5696 -47.5732 -21.7611 -0.270557 -3.30841 15.4792 -30.5643 2.34211 3.26683 -0.0 -0.0 0.0 0.0 0.0 
736.01177524 628.563 -1894.06361058 -5.42932681948 25.8215812812 13.1214071163 3.33491 -0.65646 -3.11209 3.34018 -0.4572 -3.14751 3.36327 0.0278004 -3.18039 3.34947 -0.474579 -3.14494 -4.47268 3.96258 2.55645 -4.45188 5.32267 3.2728 -0.0 0.0 -0.0 -0.226621 19.9486 1.99339 2.17585 -19.9136 72.1197 1.57571 -37.9714 0.542149 -6.9085 -0.294023 0.832249 1.89587 -14.6211 6.52677 -0.0 0.0 -0.0 7.70695 13.351 -14.7487 -22.3468 29.5581 -64.0933 0.788518 21.336 -0.148538 -4.78093 0.192788 -0.579752 3.53931 1.19471 -23.9139 0.0 0.0 0.0 14.7301 -1.68712 -13.2752 -25.8265 0.181164 3.92575 36.5219 20.0028 -4.6945 5.79088 -0.0 -0.0 -0.0 0.0 -0.0 58.9812 54.5696 -47.5732 -21.7611 -0.270557 -3.30841 15.4792 -30.5643 2.34211 3.26683 -0.0 -0.0 0.0 0.0 0.0 
740.167524736 628.563 -1899.93777299 -5.37999095127 24.7169104276 13.0058373404 3.33491 -0.65646 -3.11209 3.34018 -0.4572 -3.14751 3.36327 0.0278004 -3.18039 3.34947 -0.474579 -3.14494 -4.47268 3.96258 2.55645 -4.45188 5.32267 3.2728 -0.0 0.0 -0.0 -0.226621 19.9486 1.99339 2.17585 -19.9136 72.1197 1.57571 -37.9714 0.542149 -6.9085 -0.294023 0.832249 1.89587 -14.6211 6.52677 -0.0 0.0 -0.0 7.70695 13.351 -14.7487 -22.3468 29.5581 -64.0933 0.788518 21.336 -0.148538 -4.78093 0.192788 -0.579752 3.53931 1.19471 -23.9139 0.0 0.0 0.0 14.7301 -1.68712 -13.2752 -25.8265 0.181164 3.92575 36.5219 20.0028 -4.6945 5.79088 -0.0 -0.0 -0.0 0.0 -0.0 58.9812 54.5696 -47.5732 -21.7611 -0.270557 -3.30841 15.4792 -30.5643 2.34211 3.26683 -0.0 -0.0 0.0 0.0 0.0 
714.509181732 627.02 -1884.97491565 -6.39529156757 29.3455949177 12.3838196128 3.3645 -0.56153 -2.46124 3.36778 -0.403827 -2.49196 3.38407 -0.0202481 -2.52436 3.37542 -0.418545 -2.48953 -2.6386 1.93172 0.54493 -2.63431 3.07475 0.839734 -0.0 0.0 -0.0 -0.176592 19.0481 1.9615 -1.69889 -18.0546 72.7935 1.05123 -27.5076 0.257316 -6.64381 -0.280918 0.80104 2.54761 -16.4505 10.0931 -0.0 0.0 -0.0 8.49852 9.85393 -16.5843 -18.2997 25.073 -63.399 1.33379 33.452 -0.400833 -3.263 0.126336 -0.397427 3.09337 0.587657 -20.9228 0.0 0.0 0.0 15.7136 -2.13064 -11.8364 -29.4347 0.0653022 4.46729 37.9394 20.7009 -4.84946 5.09098 -0.0 -0.0 -0.0 0.0 -0.0 59.1976 57.0237 -47.7523 -21.5659 -0.273744 -3.27864 22.3126 -29.8907 3.27177 2.51178 -0.0 -0.0 0.0 0.0 0.0 
